# Blender 3.6.2
# www.blender.org
mtllib FloorHole.mtl
o FloorHole.001
v 0.000000 -0.762000 -7.620000
v 0.000000 -0.762000 0.000000
v 0.000000 -0.000000 -7.620000
v 0.000000 0.000000 0.000000
v 7.620000 -0.762000 -7.620000
v 7.620000 -0.000000 -7.620000
v 7.620000 -0.762000 0.000000
v 7.620000 0.000000 0.000000
v 3.450972 -0.762000 -4.254647
v 3.531283 -0.762000 -4.308928
v 3.619611 -0.762000 -4.348855
v 3.380991 -0.762000 -4.187576
v 3.323351 -0.762000 -4.109642
v 3.279711 -0.762000 -4.023088
v 4.368673 -0.762000 -3.930403
v 4.340289 -0.762000 -4.023088
v 4.296649 -0.762000 -4.109642
v 4.239009 -0.762000 -4.187576
v 4.169028 -0.762000 -4.254647
v 4.088718 -0.762000 -4.308928
v 4.000390 -0.762000 -4.348855
v 3.906584 -0.762000 -4.373280
v 3.810000 -0.762000 -4.381500
v 3.713416 -0.762000 -4.373280
v 3.251327 -0.762000 -3.930403
v 3.239015 -0.762000 -3.834255
v 3.243129 -0.762000 -3.737409
v 3.263551 -0.762000 -3.642652
v 3.299693 -0.762000 -3.552709
v 3.350516 -0.762000 -3.470167
v 3.414557 -0.762000 -3.397402
v 3.489975 -0.762000 -3.336507
v 3.574599 -0.762000 -3.289233
v 4.376871 -0.762000 -3.737409
v 4.380985 -0.762000 -3.834255
v 3.954006 -0.762000 -3.256941
v 4.045402 -0.762000 -3.289233
v 3.665995 -0.762000 -3.256941
v 3.761533 -0.762000 -3.240559
v 3.858467 -0.762000 -3.240559
v 4.130025 -0.762000 -3.336507
v 4.205443 -0.762000 -3.397402
v 4.269485 -0.762000 -3.470167
v 4.320307 -0.762000 -3.552709
v 4.356450 -0.762000 -3.642652
v 3.954006 -0.000000 -3.256941
v 3.858467 -0.000000 -3.240559
v 3.251327 -0.000000 -3.930403
v 3.279711 -0.000000 -4.023088
v 4.368673 -0.000000 -3.930403
v 4.380985 -0.000000 -3.834255
v 3.489975 -0.000000 -3.336507
v 3.574599 -0.000000 -3.289233
v 3.665995 -0.000000 -3.256941
v 3.450972 -0.000000 -4.254647
v 3.531283 -0.000000 -4.308928
v 4.376871 -0.000000 -3.737409
v 4.356450 -0.000000 -3.642652
v 3.761533 -0.000000 -3.240559
v 3.323351 -0.000000 -4.109642
v 3.380991 -0.000000 -4.187576
v 3.906584 -0.000000 -4.373280
v 4.000390 -0.000000 -4.348855
v 3.414557 -0.000000 -3.397402
v 3.350516 -0.000000 -3.470167
v 3.299693 -0.000000 -3.552709
v 3.263551 -0.000000 -3.642652
v 3.243129 -0.000000 -3.737409
v 3.239015 -0.000000 -3.834255
v 3.619611 -0.000000 -4.348855
v 3.713416 -0.000000 -4.373280
v 3.810000 -0.000000 -4.381500
v 4.088718 -0.000000 -4.308928
v 4.169028 -0.000000 -4.254647
v 4.239009 -0.000000 -4.187576
v 4.320307 -0.000000 -3.552709
v 4.269485 -0.000000 -3.470167
v 4.205443 -0.000000 -3.397402
v 4.130025 -0.000000 -3.336507
v 4.045402 -0.000000 -3.289233
v 4.296649 -0.000000 -4.109642
v 4.340289 -0.000000 -4.023088
vn -1.0000 -0.0000 -0.0000
vn -0.0000 -0.0000 -1.0000
vn 1.0000 -0.0000 -0.0000
vn -0.0000 -0.0000 1.0000
vn -0.0000 -1.0000 -0.0000
vn -0.0000 1.0000 -0.0000
vn -0.0848 -0.0000 0.9964
vn -0.2520 -0.0000 0.9677
vn -0.4119 -0.0000 0.9112
vn -0.5600 -0.0000 0.8285
vn -0.6919 -0.0000 0.7220
vn -0.8040 -0.0000 0.5946
vn -0.8929 -0.0000 0.4502
vn -0.9562 -0.0000 0.2928
vn -0.9919 -0.0000 0.1270
vn -0.9991 -0.0000 -0.0424
vn -0.9776 -0.0000 -0.2107
vn -0.9279 -0.0000 -0.3729
vn -0.8515 -0.0000 -0.5243
vn -0.7507 -0.0000 -0.6607
vn -0.6282 -0.0000 -0.7780
vn -0.4877 -0.0000 -0.8730
vn -0.3331 -0.0000 -0.9429
vn -0.1690 -0.0000 -0.9856
vn 0.1690 -0.0000 -0.9856
vn 0.3331 -0.0000 -0.9429
vn 0.4877 -0.0000 -0.8730
vn 0.6282 -0.0000 -0.7780
vn 0.7507 -0.0000 -0.6607
vn 0.8515 -0.0000 -0.5243
vn 0.9279 -0.0000 -0.3729
vn 0.9776 -0.0000 -0.2107
vn 0.9991 -0.0000 -0.0424
vn 0.9919 -0.0000 0.1270
vn 0.9562 -0.0000 0.2928
vn 0.8929 -0.0000 0.4502
vn 0.8040 -0.0000 0.5946
vn 0.6919 -0.0000 0.7220
vn 0.5600 -0.0000 0.8285
vn 0.4119 -0.0000 0.9112
vn 0.2520 -0.0000 0.9677
vn 0.0848 -0.0000 0.9964
s 0
f 1//1 2//1 3//1
f 3//1 2//1 4//1
f 5//2 1//2 6//2
f 6//2 1//2 3//2
f 7//3 5//3 8//3
f 8//3 5//3 6//3
f 2//4 7//4 4//4
f 4//4 7//4 8//4
f 9//5 1//5 10//5
f 10//5 1//5 11//5
f 9//5 12//5 1//5
f 1//5 12//5 13//5
f 1//5 13//5 14//5
f 15//5 16//5 5//5
f 5//5 16//5 17//5
f 5//5 17//5 18//5
f 18//5 19//5 5//5
f 5//5 19//5 20//5
f 5//5 20//5 21//5
f 21//5 22//5 5//5
f 5//5 22//5 23//5
f 5//5 23//5 1//5
f 1//5 23//5 24//5
f 1//5 24//5 11//5
f 14//5 25//5 1//5
f 1//5 25//5 26//5
f 1//5 26//5 2//5
f 2//5 26//5 27//5
f 27//5 28//5 2//5
f 2//5 28//5 29//5
f 2//5 29//5 30//5
f 30//5 31//5 2//5
f 2//5 31//5 32//5
f 2//5 32//5 33//5
f 7//5 34//5 5//5
f 5//5 34//5 35//5
f 5//5 35//5 15//5
f 7//5 36//5 37//5
f 33//5 38//5 2//5
f 2//5 38//5 39//5
f 2//5 39//5 7//5
f 7//5 39//5 40//5
f 7//5 40//5 36//5
f 37//5 41//5 7//5
f 7//5 41//5 42//5
f 7//5 42//5 43//5
f 43//5 44//5 7//5
f 7//5 44//5 45//5
f 7//5 45//5 34//5
f 46//6 47//6 8//6
f 48//6 49//6 3//6
f 50//6 51//6 6//6
f 52//6 4//6 53//6
f 53//6 4//6 54//6
f 3//6 55//6 56//6
f 6//6 51//6 8//6
f 8//6 51//6 57//6
f 8//6 57//6 58//6
f 8//6 47//6 4//6
f 4//6 47//6 59//6
f 4//6 59//6 54//6
f 49//6 60//6 3//6
f 3//6 60//6 61//6
f 3//6 61//6 55//6
f 62//6 63//6 6//6
f 52//6 64//6 4//6
f 4//6 64//6 65//6
f 4//6 65//6 66//6
f 66//6 67//6 4//6
f 4//6 67//6 68//6
f 4//6 68//6 3//6
f 3//6 68//6 69//6
f 3//6 69//6 48//6
f 56//6 70//6 3//6
f 3//6 70//6 71//6
f 3//6 71//6 6//6
f 6//6 71//6 72//6
f 6//6 72//6 62//6
f 63//6 73//6 6//6
f 6//6 73//6 74//6
f 6//6 74//6 75//6
f 58//6 76//6 8//6
f 8//6 76//6 77//6
f 8//6 77//6 78//6
f 78//6 79//6 8//6
f 8//6 79//6 80//6
f 8//6 80//6 46//6
f 75//6 81//6 6//6
f 6//6 81//6 82//6
f 6//6 82//6 50//6
f 72//7 23//7 62//7
f 62//7 23//7 22//7
f 62//8 22//8 63//8
f 63//8 22//8 21//8
f 63//9 21//9 73//9
f 73//9 21//9 20//9
f 73//10 20//10 74//10
f 74//10 20//10 19//10
f 74//11 19//11 75//11
f 75//11 19//11 18//11
f 75//12 18//12 81//12
f 81//12 18//12 17//12
f 81//13 17//13 82//13
f 82//13 17//13 16//13
f 82//14 16//14 50//14
f 50//14 16//14 15//14
f 50//15 15//15 51//15
f 51//15 15//15 35//15
f 51//16 35//16 57//16
f 57//16 35//16 34//16
f 57//17 34//17 58//17
f 58//17 34//17 45//17
f 58//18 45//18 76//18
f 76//18 45//18 44//18
f 76//19 44//19 77//19
f 77//19 44//19 43//19
f 77//20 43//20 78//20
f 78//20 43//20 42//20
f 78//21 42//21 79//21
f 79//21 42//21 41//21
f 79//22 41//22 80//22
f 80//22 41//22 37//22
f 80//23 37//23 46//23
f 46//23 37//23 36//23
f 46//24 36//24 47//24
f 47//24 36//24 40//24
f 47//2 40//2 59//2
f 59//2 40//2 39//2
f 59//25 39//25 54//25
f 54//25 39//25 38//25
f 54//26 38//26 53//26
f 53//26 38//26 33//26
f 53//27 33//27 52//27
f 52//27 33//27 32//27
f 52//28 32//28 64//28
f 64//28 32//28 31//28
f 64//29 31//29 65//29
f 65//29 31//29 30//29
f 65//30 30//30 66//30
f 66//30 30//30 29//30
f 66//31 29//31 67//31
f 67//31 29//31 28//31
f 67//32 28//32 68//32
f 68//32 28//32 27//32
f 68//33 27//33 69//33
f 69//33 27//33 26//33
f 69//34 26//34 48//34
f 48//34 26//34 25//34
f 48//35 25//35 49//35
f 49//35 25//35 14//35
f 49//36 14//36 60//36
f 60//36 14//36 13//36
f 60//37 13//37 61//37
f 61//37 13//37 12//37
f 61//38 12//38 55//38
f 55//38 12//38 9//38
f 55//39 9//39 56//39
f 56//39 9//39 10//39
f 56//40 10//40 70//40
f 70//40 10//40 11//40
f 70//41 11//41 71//41
f 71//41 11//41 24//41
f 71//42 24//42 72//42
f 72//42 24//42 23//42
