# Blender 3.6.2
# www.blender.org
mtllib FloorHole.mtl
o HoleFloor
v 0.000000 -0.000002 0.000000
v 0.000000 0.000000 -40.000000
v 0.000000 -20.000002 0.000000
v 0.000000 -20.000000 -40.000000
v 40.000000 -0.000002 0.000000
v 40.000000 -20.000002 0.000000
v 40.000000 0.000000 -40.000000
v 40.000000 -20.000000 -40.000000
v 22.164608 0.000000 -29.250107
v 23.551264 0.000000 -28.811274
v 20.000000 -0.000002 -10.500000
v 18.549831 -0.000002 -10.611336
v 17.133656 -0.000002 -10.942736
v 10.839592 0.000000 -22.517324
v 11.331216 0.000000 -23.886152
v 12.026029 0.000000 -25.163891
v 12.907744 0.000000 -26.320595
v 13.955696 0.000000 -27.329147
v 15.145322 0.000000 -28.165911
v 16.448738 0.000000 -28.811274
v 20.727217 0.000000 -29.472126
v 29.160408 0.000000 -22.517324
v 29.437321 0.000000 -21.089493
v 15.784662 -0.000002 -11.486427
v 14.534472 -0.000002 -12.229671
v 13.412391 -0.000002 -13.155046
v 12.444717 -0.000002 -14.240860
v 11.654134 -0.000002 -15.461662
v 11.059170 -0.000002 -16.788841
v 29.493029 0.000000 -19.636126
v 29.326229 0.000000 -18.191284
v 28.940830 -0.000002 -16.788841
v 28.345865 -0.000002 -15.461662
v 27.555283 -0.000002 -14.240860
v 10.673771 0.000000 -18.191284
v 10.506971 0.000000 -19.636126
v 10.562679 0.000000 -21.089493
v 24.854677 0.000000 -28.165911
v 26.044304 0.000000 -27.329147
v 27.092257 0.000000 -26.320595
v 27.973972 0.000000 -25.163891
v 28.668783 0.000000 -23.886152
v 26.587608 -0.000002 -13.155046
v 25.465528 -0.000002 -12.229671
v 24.215340 -0.000002 -11.486427
v 17.835392 0.000000 -29.250107
v 19.272781 0.000000 -29.472126
v 20.000000 0.000000 -29.500000
v 22.866346 -0.000002 -10.942736
v 21.450167 -0.000002 -10.611336
v 27.171251 -20.000000 -22.196171
v 26.696945 -20.000000 -23.376530
v 20.636044 -20.000000 -27.472980
v 19.363955 -20.000000 -27.472980
v 18.110165 -20.000000 -27.257999
v 16.910742 -20.000000 -26.834215
v 26.029978 -20.000000 -24.459751
v 25.189541 -20.000000 -25.414671
v 24.199812 -20.000000 -26.213823
v 23.089260 -20.000000 -26.834215
v 21.889835 -20.000000 -27.257999
v 13.613531 -20.000002 -16.067696
v 14.369958 -20.000002 -15.044941
v 17.501451 -20.000002 -12.928419
v 18.732494 -20.000002 -12.607882
v 20.000000 -20.000002 -12.500002
v 21.267506 -20.000002 -12.607882
v 22.498549 -20.000002 -12.928419
v 23.657711 -20.000002 -13.452394
v 24.711649 -20.000002 -14.164732
v 25.630041 -20.000002 -15.044941
v 26.386467 -20.000002 -16.067696
v 26.959167 -20.000002 -17.203577
v 15.288350 -20.000002 -14.164732
v 16.342287 -20.000002 -13.452394
v 27.331665 -20.000000 -18.419905
v 27.493242 -20.000000 -19.681690
v 27.439253 -20.000000 -20.952635
v 15.800189 -20.000000 -26.213823
v 14.810459 -20.000000 -25.414671
v 13.970021 -20.000000 -24.459751
v 12.560746 -20.000000 -20.952635
v 12.506758 -20.000000 -19.681690
v 12.668336 -20.000000 -18.419905
v 13.040833 -20.000002 -17.203577
v 13.303057 -20.000000 -23.376530
v 12.828750 -20.000000 -22.196171
v 21.144869 -2.000002 -12.587898
v 21.267506 -2.000002 -12.607882
v 22.262905 -2.000002 -12.849527
v 22.498549 -2.000002 -12.928419
v 23.327898 -2.000002 -13.278759
v 23.657711 -2.000002 -13.452394
v 24.314890 -2.000002 -13.865530
v 24.711649 -2.000002 -14.164732
v 25.200743 -2.000002 -14.596088
v 25.630041 -2.000002 -15.044941
v 25.964697 -2.000002 -15.453310
v 26.386467 -2.000002 -16.067696
v 26.588842 -2.000002 -16.417103
v 26.959167 -2.000002 -17.203577
v 27.058552 -2.000002 -17.464874
v 27.331665 -2.000000 -18.419905
v 27.362812 -2.000000 -18.572067
v 27.494495 -2.000000 -19.712730
v 27.450516 -2.000000 -20.860126
v 27.439253 -2.000000 -20.952635
v 27.231901 -2.000000 -21.987362
v 27.171251 -2.000000 -22.196171
v 26.843777 -2.000000 -23.068016
v 26.696945 -2.000000 -23.376530
v 26.295240 -2.000000 -24.076756
v 26.029978 -2.000000 -24.459749
v 25.599150 -2.000000 -24.989941
v 25.189541 -2.000000 -25.414669
v 24.771818 -2.000000 -25.786169
v 24.199812 -2.000000 -26.213821
v 23.832640 -2.000000 -26.446774
v 23.089260 -2.000000 -26.834213
v 22.803629 -2.000000 -26.956268
v 21.889835 -2.000000 -27.257998
v 21.708902 -2.000000 -27.302715
v 20.636044 -2.000000 -27.472980
v 20.574120 -2.000000 -27.477993
v 20.000000 -2.000000 -27.500000
v 19.425880 -2.000000 -27.477993
v 19.363955 -2.000000 -27.472980
v 18.291100 -2.000000 -27.302715
v 18.110165 -2.000000 -27.257998
v 17.196373 -2.000000 -26.956268
v 16.910742 -2.000000 -26.834213
v 16.167360 -2.000000 -26.446774
v 15.800189 -2.000000 -26.213821
v 15.228182 -2.000000 -25.786169
v 14.810459 -2.000000 -25.414669
v 14.400851 -2.000000 -24.989941
v 13.970021 -2.000000 -24.459749
v 13.704759 -2.000000 -24.076756
v 13.303057 -2.000000 -23.376530
v 13.156223 -2.000000 -23.068016
v 12.828750 -2.000000 -22.196171
v 12.768099 -2.000000 -21.987362
v 12.560746 -2.000000 -20.952635
v 12.549484 -2.000000 -20.860126
v 12.505504 -2.000000 -19.712730
v 12.637188 -2.000000 -18.572067
v 12.668336 -2.000000 -18.419905
v 12.941450 -2.000002 -17.464874
v 13.040833 -2.000002 -17.203577
v 13.411158 -2.000002 -16.417103
v 13.613531 -2.000002 -16.067696
v 14.035303 -2.000002 -15.453310
v 14.369958 -2.000002 -15.044941
v 14.799256 -2.000002 -14.596088
v 15.288350 -2.000002 -14.164732
v 15.685109 -2.000002 -13.865530
v 16.342287 -2.000002 -13.452394
v 16.672100 -2.000002 -13.278759
v 17.501451 -2.000002 -12.928419
v 17.737097 -2.000002 -12.849527
v 18.732494 -2.000002 -12.607882
v 18.855131 -2.000002 -12.587898
v 20.000000 -2.000002 -12.500002
vn -1.0000 -0.0000 -0.0000
vn -0.0000 -0.0000 1.0000
vn 1.0000 -0.0000 -0.0000
vn -0.0000 -0.0000 -1.0000
vn -0.0000 1.0000 -0.0000
vn -0.0000 -1.0000 -0.0000
vn -0.0848 0.0005 -0.9964
vn -0.1608 -0.0000 -0.9870
vn -0.2359 -0.0000 -0.9718
vn -0.2520 0.0009 -0.9677
vn -0.3175 -0.0000 -0.9483
vn -0.3891 -0.0000 -0.9212
vn -0.4119 0.0012 -0.9112
vn -0.4658 -0.0000 -0.8849
vn -0.5322 -0.0000 -0.8466
vn -0.5600 0.0014 -0.8285
vn -0.6021 -0.0000 -0.7984
vn -0.6614 -0.0000 -0.7500
vn -0.6919 0.0015 -0.7220
vn -0.7227 -0.0000 -0.6912
vn -0.7735 -0.0000 -0.6338
vn -0.8040 0.0015 -0.5946
vn -0.8244 -0.0000 -0.5660
vn -0.8653 -0.0000 -0.5012
vn -0.8929 0.0013 -0.4502
vn -0.9047 -0.0000 -0.4260
vn -0.9347 -0.0000 -0.3555
vn -0.9562 0.0010 -0.2928
vn -0.9615 -0.0000 -0.2750
vn -0.9797 -0.0000 -0.2005
vn -0.9919 0.0006 -0.1270
vn -0.9934 -0.0001 -0.1147
vn -0.9993 0.0001 0.0383
vn -0.9991 0.0004 0.0424
vn -0.9927 -0.0000 0.1209
vn -0.9805 -0.0000 0.1965
vn -0.9776 0.0008 0.2107
vn -0.9603 -0.0000 0.2789
vn -0.9361 -0.0000 0.3516
vn -0.9279 0.0012 0.3729
vn -0.9030 -0.0000 0.4297
vn -0.8674 -0.0000 0.4976
vn -0.8515 0.0014 0.5243
vn -0.8221 -0.0000 0.5694
vn -0.7761 -0.0000 0.6306
vn -0.7507 0.0015 0.6607
vn -0.7198 -0.0000 0.6942
vn -0.6646 -0.0000 0.7472
vn -0.6282 0.0015 0.7780
vn -0.5988 -0.0000 0.8009
vn -0.5357 -0.0000 0.8444
vn -0.4877 0.0014 0.8730
vn -0.4622 -0.0000 0.8868
vn -0.3929 -0.0000 0.9196
vn -0.3331 0.0011 0.9429
vn -0.3135 -0.0000 0.9496
vn -0.2399 -0.0000 0.9708
vn -0.1690 0.0007 0.9856
vn -0.1567 -0.0000 0.9876
vn -0.0807 0.0057 0.9967
vn -0.0383 0.0029 0.9993
vn 0.0383 0.0001 0.9993
vn 0.0807 -0.0000 0.9967
vn 0.1567 -0.0000 0.9876
vn 0.1690 0.0007 0.9856
vn 0.2399 -0.0000 0.9708
vn 0.3135 -0.0000 0.9496
vn 0.3331 0.0011 0.9429
vn 0.3929 -0.0000 0.9196
vn 0.4622 -0.0000 0.8868
vn 0.4877 0.0014 0.8730
vn 0.5357 -0.0000 0.8444
vn 0.5988 -0.0000 0.8009
vn 0.6282 0.0015 0.7780
vn 0.6646 -0.0000 0.7472
vn 0.7198 -0.0000 0.6942
vn 0.7507 0.0015 0.6607
vn 0.7761 -0.0000 0.6306
vn 0.8221 -0.0000 0.5694
vn 0.8515 0.0014 0.5243
vn 0.8674 -0.0000 0.4976
vn 0.9029 -0.0000 0.4297
vn 0.9279 0.0012 0.3729
vn 0.9361 -0.0000 0.3516
vn 0.9603 -0.0000 0.2789
vn 0.9776 0.0008 0.2107
vn 0.9805 -0.0000 0.1965
vn 0.9927 -0.0000 0.1208
vn 0.9991 0.0004 0.0424
vn 0.9993 0.0001 0.0383
vn 0.9934 -0.0001 -0.1147
vn 0.9919 0.0006 -0.1270
vn 0.9797 -0.0000 -0.2005
vn 0.9615 -0.0000 -0.2750
vn 0.9562 0.0010 -0.2928
vn 0.9347 -0.0000 -0.3555
vn 0.9047 -0.0000 -0.4260
vn 0.8929 0.0013 -0.4502
vn 0.8653 -0.0000 -0.5012
vn 0.8244 -0.0000 -0.5660
vn 0.8040 0.0015 -0.5946
vn 0.7735 -0.0000 -0.6338
vn 0.7227 -0.0000 -0.6912
vn 0.6919 0.0015 -0.7220
vn 0.6614 -0.0000 -0.7500
vn 0.6021 -0.0000 -0.7984
vn 0.5600 0.0014 -0.8285
vn 0.5322 -0.0000 -0.8466
vn 0.4658 -0.0000 -0.8849
vn 0.4119 0.0012 -0.9112
vn 0.3891 -0.0000 -0.9212
vn 0.3175 -0.0000 -0.9483
vn 0.2520 0.0009 -0.9677
vn 0.2359 -0.0000 -0.9718
vn 0.1608 -0.0000 -0.9870
vn 0.0848 0.0005 -0.9964
vn 0.0765 -0.0000 -0.9971
vn -0.0765 -0.0000 -0.9971
vn 0.1617 0.7046 -0.6910
vn 0.1670 0.7063 -0.6880
vn 0.2245 0.7071 -0.6706
vn 0.2657 0.7034 -0.6593
vn 0.2754 0.7065 -0.6520
vn 0.3295 0.7070 -0.6258
vn 0.3636 0.7026 -0.6116
vn 0.3766 0.7066 -0.5990
vn 0.4259 0.7069 -0.5647
vn 0.4530 0.7022 -0.5493
vn 0.4679 0.7068 -0.5306
vn 0.5287 0.7061 -0.4711
vn 0.5178 0.6976 -0.4953
vn 0.5471 0.7069 -0.4483
vn 0.5944 0.7061 -0.3849
vn 0.5891 0.6996 -0.4044
vn 0.6120 0.7070 -0.3545
vn 0.6462 0.7061 -0.2897
vn 0.6446 0.7017 -0.3035
vn 0.6610 0.7070 -0.2514
vn 0.6828 0.7061 -0.1876
vn 0.6832 0.7036 -0.1954
vn 0.6928 0.7071 -0.1418
vn 0.7035 0.7061 -0.0812
vn 0.7076 0.7061 0.0271
vn 0.7019 0.7071 0.0855
vn 0.6963 0.7049 0.1350
vn 0.6942 0.7062 0.1391
vn 0.6791 0.7071 0.1972
vn 0.6687 0.7037 0.2402
vn 0.6626 0.7064 0.2489
vn 0.6386 0.7070 0.3039
vn 0.6250 0.7028 0.3399
vn 0.6138 0.7066 0.3521
vn 0.5814 0.7069 0.4027
vn 0.5662 0.7023 0.4316
vn 0.5491 0.7067 0.4462
vn 0.4911 0.7061 0.5102
vn 0.5161 0.6970 0.4977
vn 0.4701 0.7069 0.5286
vn 0.4074 0.7061 0.5792
vn 0.4281 0.6991 0.5727
vn 0.3789 0.7070 0.5972
vn 0.3142 0.7061 0.6346
vn 0.3295 0.7012 0.6323
vn 0.2779 0.7070 0.6503
vn 0.2137 0.7061 0.6751
vn 0.2229 0.7032 0.6752
vn 0.1697 0.7071 0.6865
vn 0.1081 0.7061 0.6998
vn 0.1111 0.7051 0.7003
vn 0.0570 0.7071 0.7048
vn 0.0271 0.7068 0.7068
vn -0.0271 0.7068 0.7068
vn -0.0571 0.7071 0.7048
vn -0.1082 0.7053 0.7006
vn -0.1110 0.7062 0.6993
vn -0.1697 0.7071 0.6865
vn -0.2143 0.7039 0.6772
vn -0.2219 0.7064 0.6721
vn -0.2779 0.7070 0.6503
vn -0.3156 0.7030 0.6374
vn -0.3271 0.7066 0.6275
vn -0.3789 0.7070 0.5972
vn -0.4095 0.7024 0.5822
vn -0.4236 0.7067 0.5667
vn -0.4701 0.7069 0.5286
vn -0.4938 0.7021 0.5130
vn -0.5092 0.7068 0.4910
vn -0.5632 0.7061 0.4293
vn -0.5553 0.6986 0.4512
vn -0.5814 0.7069 0.4027
vn -0.6221 0.7061 0.3383
vn -0.6189 0.7006 0.3550
vn -0.6386 0.7070 0.3039
vn -0.6665 0.7061 0.2394
vn -0.6661 0.7027 0.2502
vn -0.6791 0.7071 0.1972
vn -0.6952 0.7061 0.1348
vn -0.6958 0.7046 0.1394
vn -0.7019 0.7071 0.0854
vn -0.7076 0.7061 0.0271
vn -0.7035 0.7061 -0.0812
vn -0.6928 0.7071 -0.1418
vn -0.6846 0.7042 -0.1881
vn -0.6806 0.7063 -0.1946
vn -0.6610 0.7070 -0.2514
vn -0.6488 0.7032 -0.2909
vn -0.6403 0.7065 -0.3015
vn -0.6120 0.7070 -0.3545
vn -0.5974 0.7025 -0.3869
vn -0.5833 0.7067 -0.4004
vn -0.5471 0.7069 -0.4483
vn -0.5316 0.7022 -0.4737
vn -0.5112 0.7068 -0.4890
vn -0.4506 0.7061 -0.5463
vn -0.4736 0.6981 -0.5370
vn -0.4259 0.7069 -0.5647
vn -0.3619 0.7061 -0.6087
vn -0.3800 0.7001 -0.6045
vn -0.3295 0.7070 -0.6258
vn -0.2647 0.7061 -0.6568
vn -0.2771 0.7022 -0.6559
vn -0.2245 0.7071 -0.6706
vn -0.1614 0.7061 -0.6895
vn -0.1675 0.7041 -0.6900
vn -0.1137 0.7071 -0.6979
vn -0.0542 0.7061 -0.7061
vn 0.0542 0.7061 -0.7061
vn 0.1137 0.7071 -0.6979
s 0
f 1//1 2//1 3//1
f 3//1 2//1 4//1
f 5//2 1//2 6//2
f 6//2 1//2 3//2
f 7//3 5//3 8//3
f 8//3 5//3 6//3
f 2//4 7//4 4//4
f 4//4 7//4 8//4
f 9//5 10//5 7//5
f 5//5 11//5 1//5
f 1//5 11//5 12//5
f 1//5 12//5 13//5
f 14//5 15//5 2//5
f 2//5 15//5 16//5
f 2//5 16//5 17//5
f 17//5 18//5 2//5
f 2//5 18//5 19//5
f 2//5 19//5 20//5
f 9//5 7//5 21//5
f 22//5 23//5 7//5
f 13//5 24//5 1//5
f 1//5 24//5 25//5
f 1//5 25//5 26//5
f 26//5 27//5 1//5
f 1//5 27//5 28//5
f 1//5 28//5 29//5
f 7//5 23//5 5//5
f 5//5 23//5 30//5
f 5//5 30//5 31//5
f 31//5 32//5 5//5
f 5//5 32//5 33//5
f 5//5 33//5 34//5
f 29//5 35//5 1//5
f 1//5 35//5 36//5
f 1//5 36//5 2//5
f 2//5 36//5 37//5
f 2//5 37//5 14//5
f 10//5 38//5 7//5
f 7//5 38//5 39//5
f 7//5 39//5 40//5
f 40//5 41//5 7//5
f 7//5 41//5 42//5
f 7//5 42//5 22//5
f 34//5 43//5 5//5
f 5//5 43//5 44//5
f 5//5 44//5 45//5
f 20//5 46//5 2//5
f 2//5 46//5 47//5
f 2//5 47//5 7//5
f 7//5 47//5 48//5
f 7//5 48//5 21//5
f 45//5 49//5 5//5
f 5//5 49//5 50//5
f 5//5 50//5 11//5
f 51//6 52//6 8//6
f 4//6 8//6 53//6
f 53//6 54//6 4//6
f 4//6 54//6 55//6
f 4//6 55//6 56//6
f 52//6 57//6 8//6
f 8//6 57//6 58//6
f 8//6 58//6 59//6
f 59//6 60//6 8//6
f 8//6 60//6 61//6
f 8//6 61//6 53//6
f 62//6 63//6 3//6
f 64//6 65//6 3//6
f 3//6 65//6 66//6
f 3//6 66//6 6//6
f 6//6 66//6 67//6
f 67//6 68//6 6//6
f 6//6 68//6 69//6
f 6//6 69//6 70//6
f 70//6 71//6 6//6
f 6//6 71//6 72//6
f 6//6 72//6 73//6
f 63//6 74//6 3//6
f 3//6 74//6 75//6
f 3//6 75//6 64//6
f 73//6 76//6 6//6
f 6//6 76//6 77//6
f 6//6 77//6 8//6
f 8//6 77//6 78//6
f 8//6 78//6 51//6
f 56//6 79//6 4//6
f 4//6 79//6 80//6
f 4//6 80//6 81//6
f 4//6 82//6 3//6
f 3//6 82//6 83//6
f 83//6 84//6 3//6
f 3//6 84//6 85//6
f 3//6 85//6 62//6
f 81//6 86//6 4//6
f 4//6 86//6 87//6
f 4//6 87//6 82//6
f 88//7 67//7 66//7
f 88//8 89//8 67//8
f 67//9 89//9 90//9
f 67//10 90//10 68//10
f 90//11 91//11 68//11
f 68//12 91//12 92//12
f 68//13 92//13 69//13
f 92//14 93//14 69//14
f 69//15 93//15 94//15
f 69//16 94//16 70//16
f 94//17 95//17 70//17
f 70//18 95//18 96//18
f 70//19 96//19 71//19
f 96//20 97//20 71//20
f 71//21 97//21 98//21
f 71//22 98//22 72//22
f 98//23 99//23 72//23
f 72//24 99//24 100//24
f 72//25 100//25 73//25
f 100//26 101//26 73//26
f 73//27 101//27 102//27
f 73//28 102//28 76//28
f 102//29 103//29 76//29
f 76//30 103//30 104//30
f 76//31 104//31 77//31
f 104//32 105//32 77//32
f 77//33 105//33 106//33
f 77//34 106//34 78//34
f 106//35 107//35 78//35
f 78//36 107//36 108//36
f 78//37 108//37 51//37
f 108//38 109//38 51//38
f 51//39 109//39 110//39
f 51//40 110//40 52//40
f 110//41 111//41 52//41
f 52//42 111//42 112//42
f 52//43 112//43 57//43
f 112//44 113//44 57//44
f 57//45 113//45 114//45
f 57//46 114//46 58//46
f 114//47 115//47 58//47
f 58//48 115//48 116//48
f 58//49 116//49 59//49
f 116//50 117//50 59//50
f 59//51 117//51 118//51
f 59//52 118//52 60//52
f 118//53 119//53 60//53
f 60//54 119//54 120//54
f 60//55 120//55 61//55
f 120//56 121//56 61//56
f 61//57 121//57 122//57
f 61//58 122//58 53//58
f 53//59 122//59 123//59
f 53//2 123//2 54//2
f 123//60 124//60 54//60
f 54//61 124//61 125//61
f 54//62 125//62 126//62
f 126//63 127//63 54//63
f 54//64 127//64 128//64
f 54//65 128//65 55//65
f 128//66 129//66 55//66
f 55//67 129//67 130//67
f 55//68 130//68 56//68
f 130//69 131//69 56//69
f 56//70 131//70 132//70
f 56//71 132//71 79//71
f 132//72 133//72 79//72
f 79//73 133//73 134//73
f 79//74 134//74 80//74
f 134//75 135//75 80//75
f 80//76 135//76 136//76
f 80//77 136//77 81//77
f 136//78 137//78 81//78
f 81//79 137//79 138//79
f 81//80 138//80 86//80
f 138//81 139//81 86//81
f 86//82 139//82 140//82
f 86//83 140//83 87//83
f 140//84 141//84 87//84
f 87//85 141//85 142//85
f 87//86 142//86 82//86
f 142//87 143//87 82//87
f 82//88 143//88 144//88
f 82//89 144//89 83//89
f 144//90 145//90 83//90
f 83//91 145//91 146//91
f 83//92 146//92 84//92
f 146//93 147//93 84//93
f 84//94 147//94 148//94
f 84//95 148//95 85//95
f 148//96 149//96 85//96
f 85//97 149//97 150//97
f 85//98 150//98 62//98
f 150//99 151//99 62//99
f 62//100 151//100 152//100
f 62//101 152//101 63//101
f 152//102 153//102 63//102
f 63//103 153//103 154//103
f 63//104 154//104 74//104
f 154//105 155//105 74//105
f 74//106 155//106 156//106
f 74//107 156//107 75//107
f 156//108 157//108 75//108
f 75//109 157//109 158//109
f 75//110 158//110 64//110
f 158//111 159//111 64//111
f 64//112 159//112 160//112
f 64//113 160//113 65//113
f 160//114 161//114 65//114
f 65//115 161//115 162//115
f 65//116 162//116 66//116
f 66//117 162//117 163//117
f 66//118 163//118 88//118
f 13//119 12//119 161//119
f 161//120 160//120 13//120
f 13//121 160//121 159//121
f 13//122 159//122 24//122
f 159//123 158//123 24//123
f 24//124 158//124 157//124
f 24//125 157//125 25//125
f 157//126 156//126 25//126
f 25//127 156//127 155//127
f 25//128 155//128 26//128
f 26//129 155//129 154//129
f 26//130 154//130 27//130
f 154//131 153//131 27//131
f 27//132 153//132 152//132
f 27//133 152//133 28//133
f 152//134 151//134 28//134
f 28//135 151//135 150//135
f 28//136 150//136 29//136
f 150//137 149//137 29//137
f 29//138 149//138 148//138
f 29//139 148//139 35//139
f 148//140 147//140 35//140
f 35//141 147//141 146//141
f 35//142 146//142 36//142
f 36//142 146//142 145//142
f 36//143 145//143 37//143
f 145//143 144//143 37//143
f 37//144 144//144 143//144
f 37//145 143//145 14//145
f 143//146 142//146 14//146
f 14//147 142//147 141//147
f 14//148 141//148 15//148
f 141//149 140//149 15//149
f 15//150 140//150 139//150
f 15//151 139//151 16//151
f 139//152 138//152 16//152
f 16//153 138//153 137//153
f 16//154 137//154 17//154
f 17//155 137//155 136//155
f 17//156 136//156 18//156
f 136//157 135//157 18//157
f 18//158 135//158 134//158
f 18//159 134//159 19//159
f 134//160 133//160 19//160
f 19//161 133//161 132//161
f 19//162 132//162 20//162
f 132//163 131//163 20//163
f 20//164 131//164 130//164
f 20//165 130//165 46//165
f 130//166 129//166 46//166
f 46//167 129//167 128//167
f 46//168 128//168 47//168
f 128//169 127//169 47//169
f 47//170 127//170 126//170
f 47//171 126//171 48//171
f 48//171 126//171 125//171
f 48//172 125//172 21//172
f 125//172 124//172 21//172
f 21//173 124//173 123//173
f 21//174 123//174 9//174
f 123//175 122//175 9//175
f 9//176 122//176 121//176
f 9//177 121//177 10//177
f 121//178 120//178 10//178
f 10//179 120//179 119//179
f 10//180 119//180 38//180
f 119//181 118//181 38//181
f 38//182 118//182 117//182
f 38//183 117//183 39//183
f 117//184 116//184 39//184
f 39//185 116//185 115//185
f 39//186 115//186 40//186
f 40//187 115//187 114//187
f 40//188 114//188 41//188
f 114//189 113//189 41//189
f 41//190 113//190 112//190
f 41//191 112//191 42//191
f 112//192 111//192 42//192
f 42//193 111//193 110//193
f 42//194 110//194 22//194
f 110//195 109//195 22//195
f 22//196 109//196 108//196
f 22//197 108//197 23//197
f 108//198 107//198 23//198
f 23//199 107//199 106//199
f 23//200 106//200 30//200
f 30//200 106//200 105//200
f 30//201 105//201 31//201
f 105//201 104//201 31//201
f 31//202 104//202 103//202
f 31//203 103//203 32//203
f 103//204 102//204 32//204
f 32//205 102//205 101//205
f 32//206 101//206 33//206
f 101//207 100//207 33//207
f 33//208 100//208 99//208
f 33//209 99//209 34//209
f 99//210 98//210 34//210
f 34//211 98//211 97//211
f 34//212 97//212 43//212
f 43//213 97//213 96//213
f 43//214 96//214 44//214
f 96//215 95//215 44//215
f 44//216 95//216 94//216
f 44//217 94//217 45//217
f 94//218 93//218 45//218
f 45//219 93//219 92//219
f 45//220 92//220 49//220
f 92//221 91//221 49//221
f 49//222 91//222 90//222
f 49//223 90//223 50//223
f 90//224 89//224 50//224
f 50//225 89//225 88//225
f 50//226 88//226 11//226
f 11//226 88//226 163//226
f 11//227 163//227 12//227
f 12//227 163//227 162//227
f 12//228 162//228 161//228
